#!OML:ASF I:\golf\golf\golf 2\Subject 1\2002-09-07\Subject1.ASF
:FULLY-SPECIFIED
:DEGREES
498
root 1.0653 17.9169 -5.35044 7.53653 -6.83593 -6.8929
lowerback -5.20711 0.828791 -3.47051
upperback -1.05321 1.20345 4.46032
thorax 1.66433 0.582496 6.6818
lowerneck -23.4237 -4.2637 -2.64019
upperneck 20.3999 -5.70577 2.73836
head 10.5723 -2.47538 0.515401
rclavicle -1.42566e-014 2.127e-014
rhumerus -36.8449 -19.6226 -70.4128
rradius 22.3665
rwrist -2.68331
rhand -20.8212 8.61175
rfingers 7.12502
rthumb 5.54701 -21.2956
lclavicle -1.42566e-014 2.127e-014
lhumerus -33.33 17.2968 77.3647
lradius 19.9233
lwrist -3.59309
lhand -9.40209 30.678
lfingers 7.12502
lthumb 16.5594 59.9914
rfemur -16.3339 -4.16347 23.8963
rtibia 31.4068
rfoot -15.2127 -3.88218
rtoes -4.06948
lfemur -14.0061 0.537098 -12.1694
ltibia 31.4218
lfoot -18.3377 10.423
ltoes -11.0925
499
root 1.02867 17.9217 -5.34222 7.62589 -7.00996 -7.03278
lowerback -5.34189 0.83981 -3.32943
upperback -1.155 1.2136 4.47106
thorax 1.63573 0.591246 6.61411
lowerneck -23.2948 -4.22107 -2.62015
upperneck 20.5253 -5.66779 2.75858
head 10.5938 -2.45434 0.526867
rclavicle 1.03057e-014 8.54774e-015
rhumerus -36.5742 -18.9717 -70.9856
rradius 22.6322
rwrist -3.16842
rhand -20.988 7.53364
rfingers 7.12502
rthumb 5.38594 -22.3779
lclavicle 1.03057e-014 8.54774e-015
lhumerus -33.2954 17.029 77.4841
lradius 19.9836
lwrist -3.52825
lhand -9.37944 30.5979
lfingers 7.12502
lthumb 16.5812 59.9096
rfemur -16.0978 -3.86718 24.1615
rtibia 30.9746
rfoot -15.2419 -3.8904
rtoes -3.56904
lfemur -13.9288 0.398364 -11.9028
ltibia 31.3159
lfoot -18.3 10.6966
ltoes -11.1227
500
root 0.993216 17.9271 -5.3353 7.76672 -7.18609 -6.96303
lowerback -5.54416 0.820824 -3.37874
upperback -1.27428 1.19655 4.42493
thorax 1.6276 0.585457 6.59572
lowerneck -23.147 -4.1526 -2.57914
upperneck 20.6317 -5.58972 2.73666
head 10.6017 -2.41916 0.526714
rclavicle -9.54788e-015 -1.39149e-015
rhumerus -36.2927 -18.3238 -71.5343
rradius 22.9172
rwrist -3.47804
rhand -21.3074 8.03744
rfingers 7.12502
rthumb 5.07757 -21.8817
lclavicle -9.54788e-015 -1.39149e-015
lhumerus -33.2976 16.9068 77.5446
lradius 20.0665
lwrist -3.58957
lhand -9.3893 30.7005
lfingers 7.12502
lthumb 16.5717 60.0129
rfemur -15.9892 -3.59937 24.1783
rtibia 30.5901
rfoot -15.1607 -3.788
rtoes -3.40937
lfemur -13.9369 0.224366 -11.8759
ltibia 31.2129
lfoot -18.2766 10.9827
ltoes -10.8032
501
root 0.956058 17.9296 -5.33135 7.87742 -7.40955 -6.86697
lowerback -5.72682 0.817265 -3.53442
upperback -1.33291 1.20464 4.41474
thorax 1.66457 0.589312 6.67924
lowerneck -23.2017 -4.10007 -2.51184
upperneck 20.8344 -5.51583 2.61623
head 10.6777 -2.39248 0.482236
rclavicle 1.00076e-014 -1.07344e-014
rhumerus -35.8544 -17.6609 -72.0446
rradius 23.1359
rwrist -3.65472
rhand -21.4989 8.80207
rfingers 7.12502
rthumb 4.89261 -21.1214
lclavicle 1.00076e-014 -1.07344e-014
lhumerus -33.0971 17.0795 77.6069
lradius 19.9485
lwrist -3.85963
lhand -9.35888 30.9093
lfingers 7.12502
lthumb 16.601 60.2192
rfemur -15.877 -3.31065 24.1687
rtibia 30.2336
rfoot -15.0394 -3.69033
rtoes -3.51474
lfemur -13.9421 0.254483 -11.8673
ltibia 31.1401
lfoot -18.2651 11.0715
ltoes -10.5399
502
root 0.917288 17.9342 -5.32952 7.95185 -7.63737 -7.0764
lowerback -5.85345 0.842518 -3.41322
upperback -1.30828 1.23028 4.50924
thorax 1.75779 0.599139 6.71554
lowerneck -23.4945 -4.04048 -2.45765
upperneck 21.1104 -5.4258 2.50299
head 10.825 -2.3548 0.440511
rclavicle 1.64308e-014 1.64991e-014
rhumerus -35.2362 -17.0471 -72.5557
rradius 23.243
rwrist -3.70405
rhand -21.5884 8.92247
rfingers 7.12502
rthumb 4.80618 -21.003
lclavicle 1.64308e-014 1.64991e-014
lhumerus -32.6833 17.1566 77.8321
lradius 19.7588
lwrist -4.03148
lhand -9.4945 31.0084
lfingers 7.12502
lthumb 16.4704 60.3292
rfemur -15.7095 -2.76424 24.4942
rtibia 29.9133
rfoot -15.0021 -3.74535
rtoes -3.00497
lfemur -13.8961 0.331814 -11.5087
ltibia 31.1046
lfoot -18.2243 11.1336
ltoes -10.4154
503
root 0.879948 17.9415 -5.3281 8.01182 -7.83963 -7.34013
lowerback -5.88991 0.869534 -3.15902
upperback -1.34006 1.25033 4.56707
thorax 1.74687 0.610993 6.63203
lowerneck -23.6006 -3.96796 -2.43411
upperneck 21.2834 -5.34374 2.52656
head 10.9064 -2.30933 0.455726
rclavicle -1.70706e-014 2.80286e-014
rhumerus -34.7452 -16.2961 -73.2125
rradius 23.4956
rwrist -3.92731
rhand -21.805 8.48675
rfingers 7.12502
rthumb 4.59711 -21.4434
lclavicle -1.70706e-014 2.80286e-014
lhumerus -32.4107 16.9098 78.0745
lradius 19.7057
lwrist -3.97229
lhand -9.60914 31.1853
lfingers 7.12502
lthumb 16.36 60.5153
rfemur -15.5536 -2.12306 24.8693
rtibia 29.6308
rfoot -14.9554 -3.8905
rtoes -2.38715
lfemur -13.8398 0.324127 -11.1099
ltibia 31.1118
lfoot -18.1861 11.3532
ltoes -10.5843
504
root 0.84652 17.9447 -5.32452 8.00274 -8.08679 -7.40861
lowerback -5.96078 0.894546 -3.10246
upperback -1.36259 1.28068 4.59164
thorax 1.75965 0.62648 6.62919
lowerneck -23.457 -3.895 -2.37552
upperneck 21.2639 -5.23802 2.42348
head 10.8649 -2.27195 0.42864
rclavicle 2.38666e-014 3.61788e-014
rhumerus -34.3289 -15.5077 -73.8213
rradius 23.8325
rwrist -4.03668
rhand -22.2188 7.5776
rfingers 7.12502
rthumb 4.19752 -22.3608
lclavicle 2.38666e-014 3.61788e-014
lhumerus -32.2178 16.7694 78.2696
lradius 19.6404
lwrist -4.03521
lhand -9.21924 31.2449
lfingers 7.12502
lthumb 16.7354 60.5436
rfemur -15.3727 -1.75457 25.024
rtibia 29.3872
rfoot -14.9216 -3.9814
rtoes -3.38635
lfemur -13.7186 0.277844 -10.9654
ltibia 31.1428
lfoot -18.1777 11.7048
ltoes -10.9547
505
root 0.81296 17.945 -5.32194 8.09458 -8.27434 -7.52427
lowerback -5.91097 0.879195 -3.00014
upperback -1.54318 1.25622 4.62553
thorax 1.54958 0.624187 6.5998
lowerneck -23.2761 -3.80145 -2.21844
upperneck 21.3479 -5.11578 2.21592
head 10.8483 -2.23175 0.35032
rclavicle -3.26193e-014 -4.03533e-014
rhumerus -34.0525 -14.7971 -74.3124
rradius 23.9752
rwrist -3.93375
rhand -22.5868 7.13491
rfingers 7.12502
rthumb 3.84209 -22.8102
lclavicle -3.26193e-014 -4.03533e-014
lhumerus -32.243 16.7018 78.3275
lradius 19.5748
lwrist -4.16454
lhand -8.86903 31.0827
lfingers 7.12502
lthumb 17.0725 60.3526
rfemur -15.3198 -1.55668 25.2519
rtibia 29.2147
rfoot -14.9491 -3.97136
rtoes -3.96432
lfemur -13.6901 0.295476 -10.7457
ltibia 31.1478
lfoot -18.1905 11.8955
ltoes -10.877
506
root 0.777195 17.9477 -5.32311 8.32224 -8.28303 -7.74617
lowerback -6.09937 0.803229 -2.83071
upperback -1.63523 1.14506 4.7249
thorax 1.57595 0.569769 6.60378
lowerneck -23.2561 -3.72868 -2.14908
upperneck 21.3763 -5.02077 2.14238
head 10.8486 -2.19234 0.327973
rclavicle -3.71199e-014 1.41137e-014
rhumerus -33.5298 -14.2006 -74.7057
rradius 24.0796
rwrist -3.56758
rhand -22.4407 6.93239
rfingers 7.12502
rthumb 3.98318 -23.0101
lclavicle -3.71199e-014 1.41137e-014
lhumerus -32.051 16.697 78.5203
lradius 19.5203
lwrist -4.33269
lhand -8.7223 31.0686
lfingers 7.12502
lthumb 17.2137 60.3261
rfemur -15.452 -1.39945 25.6292
rtibia 29.1413
rfoot -14.9782 -3.96129
rtoes -3.18351
lfemur -13.8155 0.300371 -10.363
ltibia 31.1355
lfoot -18.2251 11.9139
ltoes -10.6391
507
root 0.742697 17.9531 -5.32153 8.51367 -8.27732 -7.85424
lowerback -6.21712 0.720463 -2.67197
upperback -1.75122 1.02683 4.74788
thorax 1.5401 0.513806 6.52937
lowerneck -23.3272 -3.64389 -2.08176
upperneck 21.5228 -4.91655 2.09117
head 10.9101 -2.14382 0.313251
rclavicle -8.62539e-015 -6.55989e-015
rhumerus -33.0795 -13.7725 -75.0508
rradius 24.2541
rwrist -2.85912
rhand -22.0055 6.58888
rfingers 7.12502
rthumb 4.40347 -23.3453
lclavicle -8.62539e-015 -6.55989e-015
lhumerus -31.7949 16.6098 78.6835
lradius 19.3348
lwrist -4.48098
lhand -8.7142 31.0393
lfingers 7.12502
lthumb 17.2215 60.2962
rfemur -15.5984 -1.35441 25.8754
rtibia 29.1024
rfoot -15.0341 -3.88627
rtoes -2.67992
lfemur -13.9165 0.252771 -10.1191
ltibia 31.1318
lfoot -18.2523 11.9875
ltoes -10.463
